PathFileType	4	(X/Y/Z)	E:\Qualisys_Data\Carbon_Farble_Plate\Data\Amateur_Runner\S14\T1\S14T1V14_c3d.trc
DataRate	CameraRate	NumFrames	NumMarkers	Units	OrigDataRate	OrigDataStartFrame	OrigNumFrames
200.000000	200.000000	4	39	mm	200.000000	43	344
Frame#	Time	LSHO			RSHO			LICST			RICST			LASIS			LHEEL			RASIS			LTROC			RTROC			SACR			LTH1			LSK4			LTH2			LTH3			RHM5			LSK2			LTH4			RTH1			LTOE			RTH2			RTH3			RTH4			LLEP			RLEP			LSK1			LSK3			RSK1			LHM5			RSK2			LFT1			RSK3			RSK4			LLME			RLME			RTOE			RHEEL			RFT1			RFT2			LFT2			
		X1	Y1	Z1	X2	Y2	Z2	X3	Y3	Z3	X4	Y4	Z4	X5	Y5	Z5	X6	Y6	Z6	X7	Y7	Z7	X8	Y8	Z8	X9	Y9	Z9	X10	Y10	Z10	X11	Y11	Z11	X12	Y12	Z12	X13	Y13	Z13	X14	Y14	Z14	X15	Y15	Z15	X16	Y16	Z16	X17	Y17	Z17	X18	Y18	Z18	X19	Y19	Z19	X20	Y20	Z20	X21	Y21	Z21	X22	Y22	Z22	X23	Y23	Z23	X24	Y24	Z24	X25	Y25	Z25	X26	Y26	Z26	X27	Y27	Z27	X28	Y28	Z28	X29	Y29	Z29	X30	Y30	Z30	X31	Y31	Z31	X32	Y32	Z32	X33	Y33	Z33	X34	Y34	Z34	X35	Y35	Z35	X36	Y36	Z36	X37	Y37	Z37	X38	Y38	Z38	X39	Y39	Z39	

44	0.215	-1930.526611328125	1393.264404296875	-470.4019775390625	-1944.166015625	1377.450927734375	-162.5856018066406	-2006.278930664062	939.4742431640624	-467.8685913085938	-1984.868896484375	951.58740234375	-189.7381896972656	-1965.027099609375	890.0794677734375	-440.9801330566406	-2393.185302734375	455.75	-353.3228759765625	-1961.480102539062	914.803466796875	-207.3786926269531	-2108.525390625	810.3333129882812	-473.2569885253906	-2099.93896484375	856.9577026367188	-162.5139770507812	-2136.982666015625	950.3943481445312	-333.9951477050781	-1997.958129882812	604.1857299804688	-500.8105163574219	-2210.8330078125	460.0121459960938	-449.1211547851562	-2071.270263671875	592.574951171875	-475.6270141601562	-1973.459106445312	505.5679931640625	-488.9003295898438	-1916.533203125	74.86109924316406	-209.2860717773438	-2121.823486328125	476.841796875	-481.9927673339844	-2053.327392578125	496.4919128417969	-467.2792663574219	-1888.8857421875	660.0130615234375	-157.2740173339844	-2412.391845703125	199.6178436279297	-404.3655700683594	-1961.607299804688	635.4407958984375	-153.6196594238281	-1852.16259765625	570.756591796875	-192.0107574462891	-1929.5546875	540.6476440429688	-176.597900390625	-2009.188720703125	443.9033203125	-484.552978515625	-1886.356567382812	480.5318603515625	-190.9788513183594	-2102.830078125	393.2361450195312	-475.2485961914062	-2201.40625	380.3078918457031	-451.4620666503906	-1889.449829101562	354.690185546875	-196.6382904052734	-2432.581298828125	273.4706726074219	-453.2802734375	-1971.34326171875	380.0469665527344	-187.4025421142578	-2412.85107421875	437.5848999023438	-323.4476013183594	-1928.91650390625	261.2663879394531	-217.5341186523438	-2001.861083984375	290.7859802246094	-207.6470184326172	-2371.4677734375	404.8227233886719	-419.6581726074219	-2037.220581054688	123.7800369262695	-239.2250518798828	-1842.341796875	72.35266876220703	-271.9281616210938	-2098.03515625	105.2596054077148	-293.8365783691406	-2088.489501953125	72.18789672851562	-320.341064453125	-2101.260009765625	83.73731994628906	-264.3605346679688	-2422.417724609375	454.2505187988281	-376.1824951171875
45	0.22	-1916.50537109375	1391.408813476562	-470.4269714355469	-1927.337158203125	1374.567016601562	-162.8339538574219	-1992.440185546875	937.5057373046876	-467.3495178222656	-1971.806030273438	948.910888671875	-188.8272399902344	-1951.551513671875	887.7156372070312	-440.8222351074219	-2367.608154296875	452.3052673339844	-352.2822265625	-1945.102905273438	913.1284790039062	-207.2718048095703	-2094.5029296875	808.6614990234375	-471.2260131835938	-2085.143798828125	855.608154296875	-161.4841156005859	-2122.708251953125	949.0316162109376	-332.7386779785156	-1977.365112304688	603.5904541015625	-500.7054748535156	-2185.468994140625	459.5107116699219	-449.0850524902344	-2049.9541015625	589.9007568359375	-474.9109191894531	-1950.38916015625	505.6778259277344	-488.9894714355469	-1916.56005859375	74.2641830444336	-209.2421722412109	-2097.256103515625	477.1980590820312	-482.0811767578125	-2028.101928710938	494.3767395019531	-464.7725219726562	-1877.842163085938	655.2080078125	-156.8358917236328	-2382.7294921875	198.3393859863281	-403.7460632324219	-1950.917236328125	632.3307495117188	-152.9931488037109	-1842.447387695312	565.8707275390625	-190.3191986083984	-1920.313598632812	536.7145385742188	-176.3406829833984	-1984.849975585938	443.4116516113281	-484.588623046875	-1877.157348632812	476.2639465332031	-189.6377563476562	-2077.418212890625	392.4332275390625	-475.0136413574219	-2176.070556640625	379.1986999511719	-450.8066711425781	-1883.800659179688	350.67529296875	-197.1618499755859	-2403.893798828125	271.2020263671875	-453.0091552734375	-1964.435302734375	377.9701843261719	-187.1622161865234	-2389.90966796875	436.5254821777344	-324.4319458007812	-1925.683349609375	258.1814880371094	-217.6816253662109	-1996.534545898438	289.183837890625	-206.7160949707031	-2345.912109375	403.8489379882812	-419.8627014160156	-2036.870727539062	123.4498291015625	-239.1789093017578	-1842.317260742188	71.59173583984375	-271.9851684570312	-2097.732666015625	105.5492248535156	-294.2168579101562	-2088.932861328125	72.39815521240234	-320.5915832519531	-2101.1875	83.87510681152344	-264.3697509765625	-2396.412841796875	450.8047485351562	-375.6584777832031
46	0.225	-1902.636596679688	1389.919189453125	-470.4288940429688	-1909.919311523438	1373.07666015625	-162.6715850830078	-1978.934936523438	936.1950073242188	-467.0894165039062	-1956.459838867188	947.0592651367188	-188.2004699707031	-1937.794189453125	886.6644897460938	-440.9054870605469	-2344.834228515625	452.3787536621094	-353.6121215820312	-1931.05517578125	911.639892578125	-207.5391540527344	-2079.85986328125	806.9042358398438	-469.3897705078125	-2068.359375	853.8705444335938	-159.4219665527344	-2109.063720703125	948.2849731445312	-331.8322448730469	-1957.091186523438	603.5524291992188	-500.9876403808594	-2159.9599609375	458.4150695800781	-448.1440124511719	-2029.200805664062	588.4085693359375	-474.2437133789062	-1927.828979492188	506.9331359863281	-489.2779541015625	-1916.683959960938	73.87108612060547	-209.2779693603516	-2072.234375	477.0246276855469	-481.8589477539062	-2005.083740234375	493.8525085449219	-464.4403991699219	-1866.221923828125	650.580322265625	-156.2344665527344	-2352.788330078125	195.7862548828125	-402.7801208496094	-1940.82373046875	628.8895874023438	-153.2346343994141	-1833.8505859375	560.373046875	-190.0049133300781	-1911.429931640625	532.8358764648438	-176.2057189941406	-1960.702514648438	444.0414428710938	-484.4768981933594	-1874.3212890625	471.842041015625	-191.3915405273438	-2052.31884765625	392.7281799316406	-474.9615478515625	-2150.86328125	379.3063354492188	-450.3572082519531	-1877.595581054688	346.7994689941406	-196.8205718994141	-2375.41748046875	268.7530517578125	-453.0091247558594	-1957.8369140625	375.5325317382812	-186.6844329833984	-2365.2197265625	435.7347106933594	-324.621337890625	-1921.233520507812	254.6548919677734	-218.0588836669922	-1992.40771484375	288.0707702636719	-206.6743011474609	-2320.560546875	402.3796997070312	-419.7451171875	-2036.641845703125	123.4050674438477	-239.0653533935547	-1842.606567382812	70.94440460205078	-272.4461975097656	-2097.782470703125	105.9970169067383	-294.4679565429688	-2088.7275390625	72.6931381225586	-320.6177368164062	-2101.041748046875	84.24944305419922	-264.3501281738281	-2373.056396484375	450.0541381835938	-377.2605895996094
47	0.23	-1889.238891601562	1388.7685546875	-471.0736389160156	-1892.865234375	1371.810302734375	-162.7159881591797	-1966.712036132812	935.2770385742188	-465.9256286621094	-1941.871459960938	945.9523315429688	-187.7345581054688	-1923.594482421875	885.2864379882812	-440.4176940917969	-2320.906982421875	451.7384033203125	-355.6033325195312	-1910.247314453125	911.0107421875	-210.5451507568359	-2066.15673828125	806.3433837890625	-467.8768920898438	-2054.39208984375	853.5547485351562	-158.5495452880859	-2094.26611328125	947.7073364257812	-329.9627380371094	-1937.0732421875	604.769287109375	-500.8508605957031	-2134.93798828125	459.0843811035156	-448.1776123046875	-2008.015869140625	586.8513793945312	-473.3016052246094	-1905.332153320312	508.9672546386719	-489.5880432128906	-1916.606201171875	73.18724822998047	-209.3525543212891	-2047.151977539062	476.7429504394531	-480.89453125	-1981.22412109375	492.9506530761719	-463.1761169433594	-1855.305908203125	646.489013671875	-155.8511352539062	-2323.1279296875	193.8238067626953	-402.2084655761719	-1930.013793945312	627.0824584960938	-153.2940979003906	-1824.727661132812	554.7009887695312	-188.9741363525391	-1903.796630859375	530.011474609375	-176.2916717529297	-1936.652954101562	444.9969787597656	-484.7917785644531	-1866.12890625	467.2289733886719	-190.8821105957031	-2026.919311523438	393.0113830566406	-474.3917236328125	-2125.0732421875	378.7096252441406	-450.0692443847656	-1873.186767578125	342.7188720703125	-197.3231964111328	-2346.495361328125	266.1491088867188	-452.8385314941406	-1952.00439453125	373.7054748535156	-185.6112365722656	-2340.931640625	433.6709899902344	-324.226318359375	-1917.30322265625	252.834716796875	-218.1624908447266	-1988.323364257812	286.6091918945312	-206.5249328613281	-2294.848388671875	400.8125915527344	-419.7734985351562	-2036.19287109375	123.5966796875	-239.1031036376953	-1842.931396484375	70.49861145019531	-272.5346069335938	-2097.850341796875	106.3116226196289	-294.3372192382812	-2088.79296875	73.20264434814453	-320.9145202636719	-2100.96923828125	84.65656280517578	-264.4263000488281	-2349.476318359375	448.8921813964844	-379.5324096679688
